<svg class="icon-library" aria-hidden="true">
  <symbol id="search" viewBox="0 0 24 24"><circle cx="11" cy="11" r="6"></circle><path d="m16 16 4 4"></path></symbol>
  <symbol id="favorites" viewBox="0 0 24 24"><path d="m12 3 2.7 5.5 6.1.9-4.4 4.3 1 6.1-5.4-2.9-5.4 2.9 1-6.1-4.4-4.3 6.1-.9Z"></path></symbol>
  <symbol id="all-apps" viewBox="0 0 24 24"><rect x="4" y="4" width="6" height="6" rx="1"></rect><rect x="14" y="4" width="6" height="6" rx="1"></rect><rect x="4" y="14" width="6" height="6" rx="1"></rect><rect x="14" y="14" width="6" height="6" rx="1"></rect></symbol>
  <symbol id="internet" viewBox="0 0 24 24"><circle cx="12" cy="12" r="9"></circle><path d="M3 12h18M12 3a15 15 0 0 1 0 18M12 3a15 15 0 0 0 0 18"></path></symbol>
  <symbol id="document" viewBox="0 0 24 24"><path d="M6 3h8l4 4v14H6Z"></path><path d="M14 3v5h4M9 12h6M9 16h6"></path></symbol>
  <symbol id="terminal" viewBox="0 0 24 24"><rect x="3" y="4" width="18" height="16" rx="2"></rect><path d="m7 9 3 3-3 3M13 15h4"></path></symbol>
  <symbol id="graphic" viewBox="0 0 24 24"><path d="m4 20 4.5-1 10-10a2.1 2.1 0 0 0-3-3l-10 10Z"></path><path d="m13.5 8 3 3M4 20l1.5-4"></path></symbol>
  <symbol id="settings" viewBox="0 0 24 24"><circle cx="12" cy="12" r="3"></circle><path d="M12 3v3M12 18v3M3 12h3M18 12h3M5.6 5.6l2.1 2.1M16.3 16.3l2.1 2.1M18.4 5.6l-2.1 2.1M7.7 16.3l-2.1 2.1"></path></symbol>
  <symbol id="utilities" viewBox="0 0 24 24"><path d="M14.5 6.5a4 4 0 0 0-5-3.8l2.4 2.4-2.8 2.8-2.4-2.4a4 4 0 0 0 4.8 5L19 18a1.4 1.4 0 0 1-2 2l-7.5-7.5"></path></symbol>
  <symbol id="folder" viewBox="0 0 24 24"><path d="M3 6h7l2 2h9v11H3Z"></path></symbol>
  <symbol id="web" viewBox="0 0 24 24"><circle cx="12" cy="12" r="9"></circle><path d="M3 12h18M12 3a15 15 0 0 1 0 18M12 3a15 15 0 0 0 0 18"></path></symbol>
  <symbol id="editor" viewBox="0 0 24 24"><path d="M5 3h10l4 4v14H5Z"></path><path d="M15 3v5h4M8 16l6-6 2 2-6 6H8Z"></path></symbol>
  <symbol id="music" viewBox="0 0 24 24"><path d="M9 18V6l10-2v12"></path><circle cx="6" cy="18" r="3"></circle><circle cx="16" cy="16" r="3"></circle></symbol>
  <symbol id="list" viewBox="0 0 24 24"><path d="M9 6h11M9 12h11M9 18h11"></path><circle cx="5" cy="6" r="1"></circle><circle cx="5" cy="12" r="1"></circle><circle cx="5" cy="18" r="1"></circle></symbol>
  <symbol id="user" viewBox="0 0 24 24"><circle cx="12" cy="8" r="4"></circle><path d="M4 21a8 8 0 0 1 16 0"></path></symbol>
  <symbol id="lock" viewBox="0 0 24 24"><rect x="5" y="10" width="14" height="11" rx="2"></rect><path d="M8 10V7a4 4 0 0 1 8 0v3M12 14v3"></path></symbol>
  <symbol id="power" viewBox="0 0 24 24"><path d="M12 3v9M7 5.8a8 8 0 1 0 10 0"></path></symbol>
  <symbol id="launcher" viewBox="0 0 24 24"><rect x="4" y="4" width="6" height="6" rx="1.5"></rect><rect x="14" y="4" width="6" height="6" rx="1.5"></rect><rect x="4" y="14" width="6" height="6" rx="1.5"></rect><rect x="14" y="14" width="6" height="6" rx="1.5"></rect></symbol>
  <symbol id="screenshot" viewBox="0 0 24 24"><path d="M7 5H5a2 2 0 0 0-2 2v2M17 5h2a2 2 0 0 1 2 2v2M7 19H5a2 2 0 0 1-2-2v-2M17 19h2a2 2 0 0 0 2-2v-2"></path><circle cx="12" cy="12" r="3.5"></circle></symbol>
  <symbol id="network" viewBox="0 0 24 24"><path d="M4 9a12 12 0 0 1 16 0M7 12.5a7.5 7.5 0 0 1 10 0M10 16a3 3 0 0 1 4 0"></path><circle cx="12" cy="19" r="1"></circle></symbol>
  <symbol id="volume" viewBox="0 0 24 24"><path d="M4 10v4h4l5 4V6l-5 4Z"></path><path d="M16 9a4 4 0 0 1 0 6M18.5 6.5a8 8 0 0 1 0 11"></path></symbol>
  <symbol id="battery" viewBox="0 0 24 24"><rect x="3" y="7" width="17" height="10" rx="2"></rect><path d="M20 10h2v4h-2M6 10h9v4H6Z"></path></symbol>
  <symbol id="chevron-up" viewBox="0 0 24 24"><path d="m7 14 5-5 5 5"></path></symbol>
</svg>
